<svg width="20" height="20" viewBox="0 0 20 20" fill="none" xmlns="http://www.w3.org/2000/svg">
<g opacity="0.5">
<path d="M10.8487 0.751612C10.6237 0.526647 10.3185 0.400269 10.0003 0.400269C9.6821 0.400269 9.37693 0.526647 9.15189 0.751612L0.751893 9.15161C0.533303 9.37793 0.41235 9.68106 0.415084 9.99569C0.417819 10.3103 0.544021 10.6113 0.766511 10.8338C0.989001 11.0563 1.28998 11.1825 1.60461 11.1852C1.91925 11.188 2.22237 11.067 2.44869 10.8484L2.80029 10.4968V18.4C2.80029 18.7183 2.92672 19.0235 3.15177 19.2485C3.37681 19.4736 3.68203 19.6 4.00029 19.6H6.40029C6.71855 19.6 7.02378 19.4736 7.24882 19.2485C7.47386 19.0235 7.60029 18.7183 7.60029 18.4V16C7.60029 15.6818 7.72672 15.3765 7.95177 15.1515C8.17681 14.9264 8.48203 14.8 8.80029 14.8H11.2003C11.5186 14.8 11.8238 14.9264 12.0488 15.1515C12.2739 15.3765 12.4003 15.6818 12.4003 16V18.4C12.4003 18.7183 12.5267 19.0235 12.7518 19.2485C12.9768 19.4736 13.282 19.6 13.6003 19.6H16.0003C16.3186 19.6 16.6238 19.4736 16.8488 19.2485C17.0739 19.0235 17.2003 18.7183 17.2003 18.4V10.4968L17.5519 10.8484C17.7782 11.067 18.0813 11.188 18.396 11.1852C18.7106 11.1825 19.0116 11.0563 19.2341 10.8338C19.4566 10.6113 19.5828 10.3103 19.5855 9.99569C19.5882 9.68106 19.4673 9.37793 19.2487 9.15161L10.8487 0.751612Z" fill="black"/>
</g>
</svg>
