<svg width="26" height="26" viewBox="0 0 26 26" fill="none" xmlns="http://www.w3.org/2000/svg">
<g opacity="0.5">
<path fill-rule="evenodd" clip-rule="evenodd" d="M7.58333 3.25C8.54411 3.25013 9.47763 3.56939 10.2373 4.15765C10.9969 4.74591 11.5396 5.56983 11.7802 6.5H20.5833V8.66667H11.7802C11.514 9.68553 10.886 10.5727 10.0136 11.1624C9.14119 11.7522 8.08393 12.0043 7.03926 11.8716C5.99458 11.739 5.03391 11.2306 4.33661 10.4415C3.63932 9.65234 3.25307 8.63639 3.25 7.58333C3.25 6.43406 3.70655 5.33186 4.5192 4.5192C5.33186 3.70655 6.43406 3.25 7.58333 3.25ZM7.58333 9.75C8.15797 9.75 8.70907 9.52173 9.1154 9.1154C9.52173 8.70907 9.75 8.15797 9.75 7.58333C9.75 7.0087 9.52173 6.4576 9.1154 6.05127C8.70907 5.64494 8.15797 5.41667 7.58333 5.41667C7.0087 5.41667 6.4576 5.64494 6.05127 6.05127C5.64494 6.4576 5.41667 7.0087 5.41667 7.58333C5.41667 8.15797 5.64494 8.70907 6.05127 9.1154C6.4576 9.52173 7.0087 9.75 7.58333 9.75Z" fill="#111111"/>
<path fill-rule="evenodd" clip-rule="evenodd" d="M18.4165 21.6667C17.4557 21.6665 16.5222 21.3473 15.7626 20.759C15.0029 20.1708 14.4602 19.3468 14.2197 18.4167H5.4165V16.25H14.2197C14.4859 15.2311 15.1138 14.344 15.9862 13.7542C16.8587 13.1644 17.9159 12.9124 18.9606 13.045C20.0053 13.1777 20.9659 13.6861 21.6632 14.4752C22.3605 15.2643 22.7468 16.2803 22.7498 17.3333C22.7498 18.4826 22.2933 19.5848 21.4806 20.3975C20.668 21.2101 19.5658 21.6667 18.4165 21.6667ZM18.4165 19.5C18.9911 19.5 19.5422 19.2717 19.9486 18.8654C20.3549 18.4591 20.5832 17.908 20.5832 17.3333C20.5832 16.7587 20.3549 16.2076 19.9486 15.8013C19.5422 15.3949 18.9911 15.1667 18.4165 15.1667C17.8419 15.1667 17.2908 15.3949 16.8844 15.8013C16.4781 16.2076 16.2498 16.7587 16.2498 17.3333C16.2498 17.908 16.4781 18.4591 16.8844 18.8654C17.2908 19.2717 17.8419 19.5 18.4165 19.5Z" fill="#111111"/>
</g>
</svg>
